# xmcd CD database file
#
# Track frame offsets:
#	150
#	17083
#	36499
#	60536
#	81560
#	102842
#	108973
#	122562
#	144779
#	159637
#	177799
#	183742
#	204443
#	233121
#
# Disc length: 3290 seconds
#
# Revision: 2
# Processed by: cddbd v1.5.1PL0 Copyright (c) Steve Scherf et al.
# Submitted via: CDex 1.60beta1
#
DISCID=b90cd80e
DTITLE=Billy's Band - Оторвемся по-питерски
DYEAR=2005
DGENRE=Blues
TTITLE0=Оторвемся по-питерски
TTITLE1=Я не вернусь
TTITLE2=В голове блюз
TTITLE3=Я послала любовь
TTITLE4=Так я падал
TTITLE5=Упражнение в... (инструментал)
TTITLE6=32 рубля
TTITLE7=Где спит твое сердце
TTITLE8=Не верь мужикам
TTITLE9=В этом городе
TTITLE10=Зимнее утро (инструментал)
TTITLE11=Кладбище девичьих сердец
TTITLE12=Оторвемся по-питерски (джаз-версия)
TTITLE13=Оторвемся по-питерски (видео)
EXTD=YEAR: 2005
EXTT0=
EXTT1=
EXTT2=
EXTT3=
EXTT4=
EXTT5=
EXTT6=
EXTT7=
EXTT8=
EXTT9=
EXTT10=
EXTT11=
EXTT12=
EXTT13=
PLAYORDER=
